<svg width="90" height="57" viewBox="0 0 90 57" fill="none" xmlns="http://www.w3.org/2000/svg">
<g clip-path="url(#clip0_1_5878)">
<path d="M0.146018 0.748047H76.9437L89.9754 15.3361V56.748H13.8241L0.109375 41.2042L0.146018 0.748047Z" fill="url(#paint0_linear_1_5878)"/>
<path d="M89.9726 6.88588V0.748047H84.9883L89.9726 6.88588Z" fill="#EA533D"/>
<path d="M54.6372 29.0349C54.5992 29.1269 54.5443 29.2098 54.4753 29.2788L47.4753 36.2788C47.3293 36.4248 47.1373 36.4988 46.9453 36.4988C46.7533 36.4988 46.5613 36.4258 46.4153 36.2788C46.1223 35.9858 46.1223 35.5108 46.4153 35.2178L52.1353 29.4978H35.9453C35.5313 29.4978 35.1953 29.1618 35.1953 28.7478C35.1953 28.3338 35.5313 27.9978 35.9453 27.9978H52.1343L46.4143 22.2779C46.1213 21.9849 46.1213 21.5098 46.4143 21.2168C46.7073 20.9238 47.1823 20.9238 47.4753 21.2168L54.4753 28.2168C54.5443 28.2858 54.5992 28.3687 54.6372 28.4607C54.7132 28.6447 54.7132 28.8509 54.6372 29.0349Z" fill="white"/>
</g>
<defs>
<linearGradient id="paint0_linear_1_5878" x1="0.109375" y1="28.7481" x2="92.4605" y2="28.7481" gradientUnits="userSpaceOnUse">
<stop stop-color="#EA533D"/>
<stop offset="1" stop-color="#EBA435"/>
</linearGradient>
<clipPath id="clip0_1_5878">
<rect width="90" height="56" fill="white" transform="translate(0 0.748047)"/>
</clipPath>
</defs>
</svg>
